# xmcd
#
# Track frame offsets: 
#        150
#        18517
#        38217
#        56087
#        71871
#        85784
#        112904
#        130722
#        153386
#        169868
#        190954
#
# Disc length: 2871 seconds
#
# Revision: 0
# Processed by: cddbd v1.5.2PL0 Copyright (c) Steve Scherf et al.
# Submitted via: ExactAudioCopy v1.0b4
#
DISCID=900b350b
DTITLE=Laura Green - Green Eyed Blues
DYEAR=2019
DGENRE=Blues
TTITLE0=Bone To Pick
TTITLE1=Still In Love
TTITLE2=It Ain't Easy
TTITLE3=A Reason To Sing The Blues
TTITLE4=Mama Don't Cry
TTITLE5=All The King's Men
TTITLE6=Baby No More
TTITLE7=That's Right
TTITLE8=Pretty Little Thing
TTITLE9=Cry
TTITLE10=Don't Know Why
EXTD=
EXTT0=
EXTT1=
EXTT2=
EXTT3=
EXTT4=
EXTT5=
EXTT6=
EXTT7=
EXTT8=
EXTT9=
EXTT10=
PLAYORDER=
